<?xml version="1.0" standalone="no"?>
<svg
  width="600"
  height="600"
  viewBox="0 0 600 600"
  xmlns="http://www.w3.org/2000/svg"
>
  <g transform="translate(300,300)">
    <path d="M99.1,-112.2C145.8,-78.8,213.3,-64.1,241,-25C268.8,14.2,256.9,77.8,219.7,112.4C182.5,147,120,152.4,67.7,160.3C15.4,168.2,-26.7,178.5,-56,163.6C-85.4,148.8,-102,108.6,-138,68.8C-174,28.9,-229.3,-10.6,-238.2,-56.3C-247.2,-101.9,-209.7,-153.6,-162.3,-186.9C-114.8,-220.2,-57.4,-235.1,-15.6,-216.5C26.1,-197.8,52.3,-145.6,99.1,-112.2Z" fill="#084c61" />
  </g>
</svg>
  